<mxfile host="app.diagrams.net" modified="2022-03-23T08:00:19.045Z" agent="5.0 (Windows NT 10.0; Win64; x64) AppleWebKit/537.36 (KHTML, like Gecko) Chrome/99.0.4844.74 Safari/537.36" etag="Kp9yEC4uc_XQEL_m4nem" version="17.1.3" type="github">
  <diagram id="0vMwAXOyRod25QS18Oag" name="Page-1">
    <mxGraphModel dx="782" dy="446" grid="1" gridSize="10" guides="1" tooltips="1" connect="1" arrows="1" fold="1" page="1" pageScale="1" pageWidth="827" pageHeight="1169" math="0" shadow="0">
      <root>
        <mxCell id="0" />
        <mxCell id="1" parent="0" />
        <mxCell id="YgUOQPCzT6a9dMAo3o8m-7" style="edgeStyle=orthogonalEdgeStyle;rounded=0;orthogonalLoop=1;jettySize=auto;html=1;entryX=0;entryY=0.5;entryDx=0;entryDy=0;fontColor=#004C99;strokeColor=#004C99;" parent="1" source="YgUOQPCzT6a9dMAo3o8m-3" target="YgUOQPCzT6a9dMAo3o8m-5" edge="1">
          <mxGeometry relative="1" as="geometry" />
        </mxCell>
        <mxCell id="YgUOQPCzT6a9dMAo3o8m-3" value="" style="rounded=1;whiteSpace=wrap;html=1;dashed=1;fillColor=none;strokeColor=#00CC00;" parent="1" vertex="1">
          <mxGeometry x="45" y="60" width="190" height="180" as="geometry" />
        </mxCell>
        <mxCell id="YgUOQPCzT6a9dMAo3o8m-1" value="npm ci frontend&amp;nbsp;" style="rounded=1;whiteSpace=wrap;html=1;" parent="1" vertex="1">
          <mxGeometry x="80" y="80" width="120" height="60" as="geometry" />
        </mxCell>
        <mxCell id="YgUOQPCzT6a9dMAo3o8m-2" value="npm ci backend&amp;nbsp;" style="rounded=1;whiteSpace=wrap;html=1;" parent="1" vertex="1">
          <mxGeometry x="80" y="160" width="120" height="60" as="geometry" />
        </mxCell>
        <mxCell id="YgUOQPCzT6a9dMAo3o8m-4" value="dependencies resolution" style="text;html=1;strokeColor=none;fillColor=none;align=center;verticalAlign=middle;whiteSpace=wrap;rounded=0;dashed=1;fontColor=#00CC00;fontStyle=1" parent="1" vertex="1">
          <mxGeometry x="66.25" y="30" width="147.5" height="30" as="geometry" />
        </mxCell>
        <mxCell id="YgUOQPCzT6a9dMAo3o8m-11" style="edgeStyle=orthogonalEdgeStyle;rounded=0;orthogonalLoop=1;jettySize=auto;html=1;entryX=0;entryY=0.5;entryDx=0;entryDy=0;fontColor=#6600CC;strokeColor=#4C0099;" parent="1" source="YgUOQPCzT6a9dMAo3o8m-5" target="YgUOQPCzT6a9dMAo3o8m-9" edge="1">
          <mxGeometry relative="1" as="geometry" />
        </mxCell>
        <mxCell id="YgUOQPCzT6a9dMAo3o8m-5" value="npm run build frontend&amp;nbsp;" style="rounded=1;whiteSpace=wrap;html=1;fillColor=#dae8fc;strokeColor=#6c8ebf;fontColor=#004C99;" parent="1" vertex="1">
          <mxGeometry x="294" y="120" width="120" height="60" as="geometry" />
        </mxCell>
        <mxCell id="YgUOQPCzT6a9dMAo3o8m-6" value="react app build" style="text;html=1;strokeColor=none;fillColor=none;align=center;verticalAlign=middle;whiteSpace=wrap;rounded=0;dashed=1;fontColor=#00CCCC;" parent="1" vertex="1">
          <mxGeometry x="324" y="80" width="60" height="30" as="geometry" />
        </mxCell>
        <mxCell id="YgUOQPCzT6a9dMAo3o8m-9" value="" style="rounded=1;whiteSpace=wrap;html=1;strokeColor=#9673a6;fillColor=#e1d5e7;" parent="1" vertex="1">
          <mxGeometry x="470" y="90" width="170" height="120" as="geometry" />
        </mxCell>
        <mxCell id="YgUOQPCzT6a9dMAo3o8m-10" value="webpack build" style="text;html=1;strokeColor=none;fillColor=none;align=center;verticalAlign=middle;whiteSpace=wrap;rounded=0;fontColor=#6600CC;" parent="1" vertex="1">
          <mxGeometry x="525" y="50" width="60" height="30" as="geometry" />
        </mxCell>
      </root>
    </mxGraphModel>
  </diagram>
</mxfile>
